<?xml version="1.0" encoding="utf-8"?>
<!-- Generator: Adobe Illustrator 25.4.1, SVG Export Plug-In . SVG Version: 6.00 Build 0)  -->
<svg version="1.0" id="katman_1" xmlns="http://www.w3.org/2000/svg" xmlns:xlink="http://www.w3.org/1999/xlink" x="0px" y="0px"
	 viewBox="0 0 1280 1024" style="enable-background:new 0 0 1280 1024;" xml:space="preserve">
<style type="text/css">
	.st0{fill-rule:evenodd;clip-rule:evenodd;}
</style>
<path class="st0" d="M291.9,392.7h99.8v238.9L291.9,392.7z M221.6,392.7h-99.9v238.9L221.6,392.7z M256.7,480.8l63.6,150.9h-41.7
	l-19-48h-46.5L256.7,480.8z"/>
<path class="st0" d="M527.2,567.6L513,633.7h-32.7l54-239.6h38.7l50.8,239.6h-33.1L577,567.6H527.2z M573.1,540.9l-11-57.2
	c-3.2-16.3-6.4-37.7-8.9-54.7h-1.4c-2.5,17.4-6,39.4-9.2,54.7l-11.4,57.2H573.1z M748.7,387.8v201.5c0,13.2,0.7,32.4,1.4,44.4h-28.8
	l-2.1-21h-1.1c-5.7,12.1-18.8,23.8-36.3,23.8c-32,0-51.5-34.8-51.5-88.5c0-61.1,25.9-89.9,53.3-89.9c13.9,0,24.9,6.4,30.9,19.5h0.7
	v-89.9H748.7L748.7,387.8z M715.3,526.7c0-3.2,0-7.1-0.4-10.7c-1.8-15.6-10.7-29.1-22.7-29.1c-21,0-28.1,29.1-28.1,61.1
	c0,35.5,9.2,60.4,27,60.4c7.5,0,17.4-3.9,23.1-24.5c0.7-2.8,1.1-7.1,1.1-11V526.7L715.3,526.7z M828.3,636.6
	c-34.5,0-59.4-29.5-59.4-88.8c0-62.9,29.5-89.6,61.1-89.6c34.1,0,58.6,30.6,58.6,88.9c0,68.6-33.8,89.6-60.1,89.6H828.3z
	 M829.4,610.3c20.6,0,25.2-36.6,25.2-62.9c0-26-4.6-62.9-25.9-62.9c-22,0-26.3,37-26.3,62.9c0,28.8,5,62.9,26.7,62.9H829.4z
	 M908.8,387.8h33.4v92.8h0.7c8.9-15.6,21-22.4,36.3-22.4c29.5,0,48,33.4,48,86.4c0,61.8-25.2,92.1-53.7,92.1
	c-17.1,0-26.7-9.2-34.1-24.5H938l-1.8,21.7h-28.8c0.7-11.7,1.4-31.3,1.4-44.4V387.8L908.8,387.8z M942.3,572.6
	c0,3.9,0.4,7.8,1.4,10.7c5.3,21,15.6,25.2,22.4,25.2c19.9,0,27.4-26.3,27.4-61.8c0-33.1-7.8-59.7-27.7-59.7
	c-11,0-19.9,13.2-22.4,25.6c-0.7,3.6-1.1,8.2-1.1,11.7L942.3,572.6L942.3,572.6L942.3,572.6z M1076.5,554.1
	c0.4,44.4,19.5,55.4,39.8,55.4c12.1,0,22.4-2.8,29.9-6.4l5,24.2c-10.3,5.3-25.9,8.2-41.2,8.2c-43.4,0-66.1-32.7-66.1-86
	c0-56.5,25.9-91.3,61.8-91.3c35.9,0,52.6,34.5,52.6,77.8c0,8.5-0.4,13.9-0.7,18.5L1076.5,554.1L1076.5,554.1z M1126.6,530.3
	c0.4-30.6-10.3-46.9-23.5-46.9c-17.4,0-25.2,25.2-26.3,46.9H1126.6z"/>
</svg>
