<?xml version="1.0" encoding="utf-8"?>
<!-- Generator: Adobe Illustrator 23.0.1, SVG Export Plug-In . SVG Version: 6.00 Build 0)  -->
<svg version="1.1" id="Layer_1" xmlns="http://www.w3.org/2000/svg" xmlns:xlink="http://www.w3.org/1999/xlink" x="0px" y="0px"
	 viewBox="0 0 300 280" style="enable-background:new 0 0 300 280;" xml:space="preserve">
<style type="text/css">
	.st0{fill:#A2A9AD;}
</style>
<g>
	<g>
		<path class="st0" d="M226.4,148.8c-0.3-35.4,28.9-52.5,30.3-53.3c-16.5-24.1-42.1-27.4-51.2-27.8c-21.8-2.2-42.6,12.8-53.6,12.8
			c-11.1,0-28.1-12.5-46.2-12.2c-23.8,0.4-45.7,13.8-58,35.1C23,146.3,41.4,209.8,65.5,244.6c11.8,17,25.8,36.1,44.2,35.4
			c17.7-0.7,24.5-11.5,45.9-11.5s27.5,11.5,46.2,11.1c19.1-0.3,31.2-17.3,42.9-34.4c13.5-19.7,19.1-38.9,19.4-39.8
			C263.6,205.2,226.8,191.1,226.4,148.8"/>
	</g>
	<path class="st0" d="M191.2,44.7C201,32.9,207.5,16.4,205.8,0c-14.1,0.6-31.1,9.4-41.3,21.2c-9.1,10.5-17,27.2-14.8,43.3
		C165.3,65.7,181.4,56.6,191.2,44.7"/>
</g>
</svg>
