<?xml version="1.0" encoding="utf-8"?>
<!-- Generator: Adobe Illustrator 23.0.1, SVG Export Plug-In . SVG Version: 6.00 Build 0)  -->
<svg version="1.1" id="Layer_1" xmlns="http://www.w3.org/2000/svg" xmlns:xlink="http://www.w3.org/1999/xlink" x="0px" y="0px"
	 viewBox="0 0 1000 1000" style="enable-background:new 0 0 1000 1000;" xml:space="preserve">
<style type="text/css">
	.st0{fill:#BBBDBF;}
</style>
<g>
	<path class="st0" d="M725.9,274.1c-36.9-36.9-96.2-36.9-215-36.9h-21.9c-118.7,0-178.1,0-215,36.9c-36.9,36.9-36.9,96.2-36.9,215
		v21.9c0,118.7,0,178.1,36.9,215c36.9,36.9,96.2,36.9,215,36.9h21.9c118.7,0,178.1,0,215-36.9c36.9-36.9,36.9-96.2,36.9-215v-21.9
		C762.8,370.3,762.8,310.9,725.9,274.1z M664.4,609.5H626c-14.6,0-18.9-11.7-44.9-37.6c-22.7-21.9-32.5-24.8-38.2-24.8
		c-7.7,0-10,2.2-10,13.1v34.4c0,9.4-3,14.9-27.4,14.9c-40.6,0-85.2-24.7-116.9-70.1c-47.5-66.6-60.5-117-60.5-127.1
		c0-5.7,2.2-10.8,13.1-10.8h38.3c9.8,0,13.5,4.3,17.2,14.9C415.4,471,447,518.7,460,518.7c4.9,0,7.1-2.3,7.1-14.6v-56.5
		c-1.4-26-15.2-28.1-15.2-37.3c0-4.3,3.7-8.8,9.7-8.8h60.3c8.1,0,11,4.3,11,14.1v75.9c0,8.1,3.5,11,6,11c4.9,0,8.9-2.9,17.9-11.8
		c27.6-30.9,47.1-78.4,47.1-78.4c2.4-5.7,6.9-10.8,16.7-10.8h38.3c11.6,0,14,6,11.6,14.1c-4.9,22.3-51.6,88.1-51.6,88.1
		c-4.1,6.5-5.7,9.7,0,17c4.1,5.7,17.5,17,26.4,27.6c16.5,18.5,28.9,34.2,32.3,44.9C680.8,604,675.3,609.5,664.4,609.5z"/>
</g>
</svg>
